<?xml version="1.0" standalone="no"?>
<!DOCTYPE svg PUBLIC "-//W3C//DTD SVG 20010904//EN"
 "http://www.w3.org/TR/2001/REC-SVG-20010904/DTD/svg10.dtd">
<svg version="1.0" xmlns="http://www.w3.org/2000/svg"
 width="1048.000000pt" height="324.000000pt" viewBox="0 0 1048.000000 324.000000"
 preserveAspectRatio="xMidYMid meet">

<g transform="translate(0.000000,324.000000) scale(0.100000,-0.100000)"
fill="#000000" stroke="none">
<path d="M5 1620 c0 -894 1 -1291 2 -883 l3 742 24 -24 c35 -35 72 -41 143
-22 124 32 259 114 313 189 25 35 30 50 30 101 0 79 -15 125 -59 184 -41 55
-149 131 -223 158 -66 24 -120 10 -144 -38 -15 -28 -16 -41 -4 -127 19 -137
16 -161 -32 -263 l-43 -91 -5 850 c-4 596 -5 365 -5 -776z"/>
<path d="M7415 3203 c-11 -3 -39 -18 -62 -34 -123 -85 -124 -222 0 -236 144
-17 297 184 193 252 -25 16 -100 27 -131 18z"/>
<path d="M2815 3171 c-90 -22 -159 -88 -172 -164 -5 -31 -1 -40 25 -67 26 -26
38 -30 84 -30 99 0 197 73 214 159 8 40 -16 78 -61 97 -37 15 -45 16 -90 5z"/>
<path d="M7715 3040 c-137 -54 -195 -173 -112 -232 85 -61 260 -9 313 93 54
105 -70 191 -201 139z"/>
<path d="M3077 2983 c-57 -19 -122 -79 -132 -122 -16 -72 67 -138 159 -126
136 17 232 129 186 216 -26 48 -121 62 -213 32z"/>
<path d="M7030 2941 c-48 -12 -90 -56 -90 -95 0 -11 23 -69 51 -129 l52 -109
-8 -76 c-5 -42 -9 -106 -9 -140 -1 -55 2 -66 23 -83 40 -33 99 -25 170 22 68
46 170 152 209 219 59 100 19 230 -94 306 -88 59 -239 101 -304 85z"/>
<path d="M2373 2930 c-62 -25 -67 -101 -14 -226 41 -95 46 -137 27 -211 -9
-33 -16 -86 -16 -116 0 -49 3 -58 28 -77 58 -46 167 -2 294 118 113 108 142
178 114 275 -31 106 -139 192 -291 232 -65 17 -109 18 -142 5z"/>
<path d="M7738 2721 c-69 -22 -128 -83 -128 -131 0 -21 40 -68 78 -92 31 -19
51 -23 124 -23 96 0 123 12 166 76 25 36 23 64 -6 105 -37 51 -167 86 -234 65z"/>
<path d="M3095 2671 c-66 -16 -113 -59 -121 -113 -5 -27 -1 -40 20 -65 104
-124 356 -89 356 49 0 27 -28 73 -56 92 -42 29 -148 49 -199 37z"/>
<path d="M7454 2451 c-32 -14 -64 -60 -64 -94 0 -42 34 -92 78 -113 27 -14 59
-19 119 -19 76 0 84 2 112 29 41 39 46 69 20 115 -31 55 -86 83 -173 88 -39 1
-81 -1 -92 -6z"/>
<path d="M2795 2417 c-40 -18 -55 -38 -62 -81 -7 -47 30 -106 83 -131 57 -27
159 -32 200 -10 40 21 67 74 58 110 -8 33 -52 77 -100 100 -49 23 -141 29
-179 12z"/>
<path d="M5065 2380 c-48 -15 -103 -67 -116 -109 -32 -107 102 -168 229 -105
102 51 130 122 73 186 -26 29 -35 32 -92 35 -35 1 -77 -2 -94 -7z"/>
<path d="M4617 2222 c-32 -33 -34 -67 -12 -191 17 -99 11 -135 -40 -242 -51
-108 -46 -157 22 -186 29 -12 45 -12 87 -3 86 20 210 85 275 146 100 93 114
174 49 295 -36 68 -106 128 -203 175 -90 44 -140 45 -178 6z"/>
<path d="M9950 2229 c-53 -15 -111 -60 -133 -102 -19 -37 -19 -41 -3 -73 53
-111 300 -64 332 63 9 34 -14 82 -47 99 -38 19 -106 25 -149 13z"/>
<path d="M559 2191 c-45 -15 -88 -53 -110 -97 -19 -40 -19 -44 -4 -74 23 -44
93 -74 154 -66 65 9 128 43 156 84 33 48 32 84 -4 124 -26 30 -34 32 -97 35
-38 1 -81 -2 -95 -6z"/>
<path d="M5347 2149 c-59 -9 -118 -48 -142 -93 -16 -29 -17 -38 -6 -64 25 -61
85 -92 175 -92 101 0 196 69 196 141 0 29 -30 73 -61 90 -32 17 -110 25 -162
18z"/>
<path d="M9504 2081 c-51 -31 -59 -66 -39 -172 22 -112 17 -162 -29 -266 -56
-126 -45 -183 39 -199 46 -8 110 9 205 57 195 96 255 202 203 355 -23 69 -109
151 -213 203 -92 46 -121 50 -166 22z"/>
<path d="M10176 1985 c-54 -19 -105 -72 -112 -116 -5 -30 -1 -40 27 -71 115
-121 397 -19 339 122 -27 65 -160 99 -254 65z"/>
<path d="M807 1950 c-45 -14 -98 -60 -113 -97 -13 -30 -13 -38 2 -69 25 -51
81 -78 169 -78 59 0 78 4 116 26 26 15 54 39 64 54 35 54 13 118 -50 148 -41
20 -149 29 -188 16z"/>
<path d="M5235 1827 c-105 -49 -88 -169 32 -228 38 -19 64 -24 126 -24 76 0
80 1 108 33 57 64 24 154 -77 205 -45 23 -152 31 -189 14z"/>
<path d="M10084 1660 c-37 -24 -59 -69 -50 -105 10 -38 66 -96 116 -118 61
-27 154 -28 197 -3 85 52 64 162 -43 216 -69 34 -176 39 -220 10z"/>
<path d="M4940 1653 c-8 -3 -25 -15 -37 -26 -27 -24 -31 -83 -9 -126 29 -55
125 -111 192 -111 47 0 103 27 117 57 13 30 -4 91 -39 132 -49 59 -163 96
-224 74z"/>
<path d="M712 1629 c-40 -20 -72 -61 -72 -92 0 -31 61 -104 108 -130 90 -49
177 -48 231 2 63 59 31 154 -69 203 -81 39 -144 45 -198 17z"/>
<path d="M9811 1497 c-72 -25 -88 -88 -41 -164 22 -37 107 -89 160 -98 47 -8
108 14 133 47 18 25 19 31 8 70 -17 56 -83 120 -147 142 -55 19 -67 19 -113 3z"/>
<path d="M435 1473 c-64 -17 -91 -63 -75 -125 33 -119 223 -190 297 -110 68
74 -32 219 -162 235 -22 3 -49 3 -60 0z"/>
<path d="M3016 812 c-3 -74 -6 -164 -6 -199 l0 -63 -186 0 -186 0 7 195 7 195
-24 0 -25 0 -7 -210 c-4 -115 -5 -214 -1 -220 4 -6 82 -10 210 -10 l205 0 -5
-57 c-2 -32 -7 -142 -10 -244 l-5 -187 25 -4 c23 -5 25 -2 25 31 0 20 7 225
15 456 8 231 15 425 15 431 0 7 -11 14 -24 16 -23 5 -23 5 -30 -130z"/>
<path d="M3506 932 c-2 -4 -9 -153 -15 -332 -6 -179 -14 -384 -17 -456 l-6
-131 25 -5 24 -5 7 135 c3 74 6 175 6 224 l0 88 229 0 c199 0 230 2 235 16 8
20 8 438 0 458 -5 14 -36 16 -244 16 -132 0 -241 -3 -244 -8z m444 -237 l0
-195 -205 0 -205 0 0 118 c0 66 3 153 6 195 l7 77 198 0 199 0 0 -195z"/>
<path d="M4217 913 c-4 -3 -7 -190 -7 -415 l0 -408 25 0 25 0 0 195 0 195 230
0 230 0 0 -190 0 -190 25 0 25 0 -2 408 -3 407 -271 3 c-149 1 -273 -1 -277
-5z m503 -213 l0 -170 -230 0 -230 0 0 170 0 170 230 0 230 0 0 -170z"/>
<path d="M4843 903 c-7 -2 -13 -10 -13 -16 0 -26 310 -792 320 -791 5 1 16 2
23 3 8 0 14 7 14 15 0 18 246 676 253 676 3 0 64 -154 137 -343 117 -304 134
-342 153 -342 20 0 37 40 165 385 136 367 142 385 122 393 -11 4 -23 4 -27 0
-4 -4 -63 -160 -131 -345 -68 -186 -126 -338 -129 -338 -3 0 -61 145 -129 323
-69 177 -129 328 -134 335 -5 6 -6 12 -1 13 5 0 -2 5 -15 10 -14 5 -27 6 -31
2 -4 -4 -65 -163 -135 -352 -95 -252 -131 -338 -137 -325 -5 11 -68 172 -142
359 -74 186 -138 340 -142 341 -5 1 -15 0 -21 -3z"/>
<path d="M6213 882 l-23 -3 0 -370 0 -369 25 0 25 0 2 330 3 330 249 -315
c198 -250 255 -315 273 -315 l23 0 0 345 0 345 -25 0 -25 0 -2 -300 -3 -301
-240 303 c-132 166 -244 307 -250 313 -5 6 -20 9 -32 7z"/>
</g>
</svg>
